<svg width="84" height="32" viewBox="0 0 84 32" fill="none" xmlns="http://www.w3.org/2000/svg">
<path d="M13.9791 11.8327H11V10.3564H18.52V11.8327H15.5409V20.3894H13.9791V11.8327Z" fill="black"/>
<path d="M27.2618 13.1657H28.7533V13.997C28.894 13.7485 29.1332 13.5288 29.4709 13.3377C29.818 13.1466 30.2026 13.051 30.6247 13.051C31.6565 13.051 32.4491 13.3902 33.0026 14.0686C33.556 14.7471 33.8328 15.65 33.8328 16.7775C33.8328 17.905 33.556 18.808 33.0026 19.4864C32.4491 20.1648 31.6565 20.504 30.6247 20.504C30.2588 20.504 29.8977 20.4228 29.5412 20.2604C29.1942 20.0884 28.9315 19.8734 28.7533 19.6154V23.3132H27.2618V13.1657ZM30.4418 19.1854C30.9952 19.1854 31.4408 18.9704 31.7784 18.5404C32.1161 18.1009 32.285 17.5133 32.285 16.7775C32.285 16.0418 32.1161 15.4589 31.7784 15.0289C31.4408 14.5894 30.9952 14.3696 30.4418 14.3696C29.8977 14.3696 29.4568 14.5894 29.1191 15.0289C28.7814 15.4589 28.6126 16.0418 28.6126 16.7775C28.6126 17.5133 28.7814 18.1009 29.1191 18.5404C29.4568 18.9704 29.8977 19.1854 30.4418 19.1854Z" fill="black"/>
<path d="M38.5499 20.504C37.8276 20.504 37.2179 20.3272 36.7208 19.9737C36.2236 19.6202 35.8484 19.1616 35.5951 18.5978C35.3512 18.0245 35.2292 17.4177 35.2292 16.7775C35.2292 16.1373 35.3512 15.5354 35.5951 14.9716C35.8484 14.3983 36.2236 13.9349 36.7208 13.5813C37.2179 13.2278 37.8276 13.051 38.5499 13.051C39.2534 13.051 39.8491 13.2182 40.3368 13.5527C40.8246 13.8871 41.1904 14.3219 41.4343 14.8569C41.6782 15.392 41.8002 15.9558 41.8002 16.5482V17.1788H36.777C36.7958 17.7426 36.9646 18.2204 37.2836 18.6121C37.6119 18.9943 38.0574 19.1854 38.6203 19.1854C39.0518 19.1854 39.4082 19.0851 39.6896 18.8844C39.9804 18.6838 40.243 18.3684 40.4776 17.9384L41.7017 18.4258C41.3921 19.1233 40.9841 19.6441 40.4776 19.988C39.971 20.332 39.3284 20.504 38.5499 20.504ZM40.2806 15.9462C40.1961 15.478 40.0085 15.1006 39.7178 14.8139C39.4363 14.5177 39.047 14.3696 38.5499 14.3696C38.0903 14.3696 37.7103 14.5225 37.4102 14.8283C37.11 15.1245 36.9177 15.4971 36.8333 15.9462H40.2806Z" fill="black"/>
<path d="M43.9055 14.4842H42.9346V13.1656H43.9055V12.7643C43.9055 11.9234 44.1118 11.2928 44.5246 10.8723C44.9467 10.4519 45.5282 10.2417 46.2693 10.2417C46.7664 10.2417 47.1604 10.3277 47.4512 10.4997L47.1276 11.7466C46.8556 11.6224 46.5882 11.5603 46.3256 11.5603C45.6971 11.5603 45.3828 11.9186 45.3828 12.6353V13.1656H46.9446V14.4842H45.3828V20.3893H43.9055V14.4842Z" fill="black"/>
<path d="M51.3622 20.504C50.6399 20.504 50.0114 20.3368 49.4767 20.0024C48.9514 19.668 48.5481 19.2189 48.2667 18.6551C47.9853 18.0914 47.8446 17.4655 47.8446 16.7775C47.8446 16.0896 47.9853 15.4637 48.2667 14.8999C48.5481 14.3362 48.9514 13.8871 49.4767 13.5527C50.0114 13.2182 50.6399 13.051 51.3622 13.051C52.0751 13.051 52.6988 13.2182 53.2335 13.5527C53.7682 13.8871 54.1763 14.3362 54.4577 14.8999C54.7391 15.4637 54.8798 16.0896 54.8798 16.7775C54.8798 17.4655 54.7391 18.0914 54.4577 18.6551C54.1763 19.2189 53.7682 19.668 53.2335 20.0024C52.6988 20.3368 52.0751 20.504 51.3622 20.504ZM51.3622 19.1854C51.9719 19.1854 52.4503 18.9513 52.7974 18.4831C53.1444 18.0149 53.3179 17.4464 53.3179 16.7775C53.3179 16.1087 53.1444 15.5401 52.7974 15.0719C52.4503 14.6037 51.9719 14.3696 51.3622 14.3696C50.7524 14.3696 50.2694 14.6037 49.9129 15.0719C49.5659 15.5401 49.3923 16.1087 49.3923 16.7775C49.3923 17.4464 49.5659 18.0149 49.9129 18.4831C50.2694 18.9513 50.7524 19.1854 51.3622 19.1854Z" fill="black"/>
<path d="M56.3313 13.1657H57.8228V14.3696C58.0573 13.9397 58.3574 13.6148 58.7233 13.395C59.0891 13.1657 59.4878 13.051 59.9193 13.051C60.1913 13.051 60.4961 13.1084 60.8338 13.223L60.5524 14.6276C60.3179 14.4843 60.0459 14.4126 59.7363 14.4126C59.1829 14.4126 58.7233 14.6897 58.3574 15.2439C58.001 15.7885 57.8228 16.6246 57.8228 17.7522V20.3894H56.3313V13.1657Z" fill="black"/>
<path d="M62.1507 13.1657H63.6421V14.427C64.1768 13.5097 64.8756 13.051 65.7386 13.051C66.2264 13.051 66.6392 13.18 66.9768 13.438C67.3239 13.6864 67.5678 14.0639 67.7085 14.5703C67.9618 14.1021 68.2807 13.7342 68.6651 13.4667C69.0593 13.1896 69.4765 13.051 69.9173 13.051C70.5929 13.051 71.1086 13.2469 71.4653 13.6387C71.8216 14.0304 72 14.5894 72 15.3156V20.3894H70.5227V15.5592C70.5227 15.1484 70.4381 14.8474 70.2695 14.6563C70.1101 14.4652 69.8615 14.3696 69.5237 14.3696C69.2049 14.3696 68.9137 14.4891 68.6513 14.7279C68.3979 14.9668 68.1963 15.3204 68.0462 15.7885C67.8961 16.2472 67.8211 16.8062 67.8211 17.4655V20.3894H66.3436V15.5592C66.3436 15.1484 66.2592 14.8474 66.0904 14.6563C65.9309 14.4652 65.6823 14.3696 65.3446 14.3696C64.8475 14.3696 64.4395 14.6515 64.1205 15.2153C63.8016 15.7694 63.6421 16.5578 63.6421 17.5802V20.3894H62.1507V13.1657Z" fill="black"/>
<path d="M21.412 20.0595L18.4534 13.1655H20.1928L22.2573 18.096L24.1918 13.1655H25.9149L21.7371 23.3131H20.079L21.412 20.0595Z" fill="black"/>
</svg>
